# xmcd
# Copyright (c) 1998 CDDB Inc.
#
# Track frame offsets:
#	150
#	13939
#	27918
#	40696
#	51268
#	66617
#	81351
#	94633
#	109555
#	124467
#	138997
#	153155
#	165250
#	179746
#	193864
#	209060
#	222001
#	238776
#	255095
#	269059
#	281551
#	295460
#	307927
#
# Disc length: 4280 seconds
#
# Revision: 1
# Processed by: cddbd v1.4b41PL1 Copyright (c) Steve Scherf et al.
# Submitted via: audiograbber 1.80
#
DISCID=5b10b617
DTITLE=Various Artist - Ruckus Juice and Chittlins Volume 1
DYEAR=1900
DGENRE=
TTITLE0=Whistler's Jug Band - Low Down Blues
TTITLE1=Birmingham Jug Band - Giving It Away
TTITLE2=Memphis Jug Band - Cocaine Habit Blues
TTITLE3=Ben Ferguson - Try And Treat Her Right
TTITLE4=John Harris - Glad And Sorry Blues
TTITLE5=King David's Jug Band - What's That Tastes Like Gravy
TTITLE6=Cincinnati Jug Band - Newport Blues
TTITLE7=Cannon's Jug Stompers - Big Railroad Blues
TTITLE8=Memphis Jug Band - Fourth Street Mess Around
TTITLE9=Dixieland Jug Blowers - Banjoreno
TTITLE10=King David's Jug Band - Tear It Down
TTITLE11=Noah Lewis's Jug Band - Ticket Agent Blues
TTITLE12=Jed Davenport and His Beale Street Jug Band - You Ought To Move Out Of T
TTITLE12=own
TTITLE13=Jack Kelly and His South Memphis Jug Band - Cold Iron Bed
TTITLE14=Birmingham Jug Band - Bill Wilson
TTITLE15=Kaiser Clifton - Cash Money Blues
TTITLE16=Cannon's Jug Stompers - Minglewood Blues
TTITLE17=The Walter Family - That's My Rabbit, My Dog Caught It
TTITLE18=Memphis Jug Band - Spider's Nest Blues
TTITLE19=Earl McDonald's Original Louisville Jug Band - She's In The Graveyard 
TTITLE19=Now
TTITLE20=Ben Ferguson - Please Don't Holler, Mama
TTITLE21=Whistler's Jug Band - Vamps Of "28"
TTITLE22=Memphis Jug Band - Ruckus Juice And Chittlin'
EXTD=
EXTT0=
EXTT1=
EXTT2=
EXTT3=
EXTT4=
EXTT5=
EXTT6=
EXTT7=
EXTT8=
EXTT9=
EXTT10=
EXTT11=
EXTT12=
EXTT13=
EXTT14=
EXTT15=
EXTT16=
EXTT17=
EXTT18=
EXTT19=
EXTT20=
EXTT21=
EXTT22=
PLAYORDER=
